HIERARCHY
ROOT root
{
	OFFSET 0.000000 0.000642 0.045086
	CHANNELS 6 Xposition Yposition Zposition Xrotation Yrotation Zrotation
	JOINT pelvis
	{
		OFFSET -0.003967 0.043983 0.922426
		CHANNELS 6 Xposition Yposition Zposition Xrotation Yrotation Zrotation
		JOINT thigh_R
		{
			OFFSET -0.108457 -0.044120 -0.114620
			CHANNELS 6 Xposition Yposition Zposition Xrotation Yrotation Zrotation
			JOINT calf_R
			{
				OFFSET -0.031978 -0.023263 -0.393771
				CHANNELS 3 Xrotation Yrotation Zrotation
				JOINT foot_R
				{
					OFFSET -0.052496 0.000902 -0.370102
					CHANNELS 3 Xrotation Yrotation Zrotation
					JOINT toes_R
					{
						OFFSET -0.009320 -0.126011 -0.069821
						CHANNELS 6 Xposition Yposition Zposition Xrotation Yrotation Zrotation
						End Site
						{
							OFFSET -0.004473 -0.046724 -0.003049
						}
					}
				}
				JOINT calf_twist_R
				{
					OFFSET 0.000000 0.000000 0.000000
					CHANNELS 6 Xposition Yposition Zposition Xrotation Yrotation Zrotation
					End Site
					{
						OFFSET -0.038816 0.005263 -0.254563
					}
				}
			}
			JOINT thigh_twist_R
			{
				OFFSET 0.000000 -0.000000 0.000000
				CHANNELS 6 Xposition Yposition Zposition Xrotation Yrotation Zrotation
				End Site
				{
					OFFSET -0.013447 -0.026672 -0.173442
				}
			}
		}
		JOINT thigh_L
		{
			OFFSET 0.116390 -0.044120 -0.114620
			CHANNELS 6 Xposition Yposition Zposition Xrotation Yrotation Zrotation
			JOINT calf_L
			{
				OFFSET 0.031978 -0.023263 -0.393771
				CHANNELS 3 Xrotation Yrotation Zrotation
				JOINT foot_L
				{
					OFFSET 0.052496 0.000902 -0.370102
					CHANNELS 3 Xrotation Yrotation Zrotation
					JOINT toes_L
					{
						OFFSET 0.009320 -0.126011 -0.069821
						CHANNELS 3 Xrotation Yrotation Zrotation
						End Site
						{
							OFFSET 0.004473 -0.046724 -0.003049
						}
					}
				}
				JOINT calf_twist_L
				{
					OFFSET 0.000000 0.000000 0.000000
					CHANNELS 6 Xposition Yposition Zposition Xrotation Yrotation Zrotation
					End Site
					{
						OFFSET 0.038816 0.005263 -0.254563
					}
				}
			}
			JOINT thigh_twist_L
			{
				OFFSET 0.000000 0.000000 0.000000
				CHANNELS 6 Xposition Yposition Zposition Xrotation Yrotation Zrotation
				End Site
				{
					OFFSET 0.013447 -0.026672 -0.173442
				}
			}
		}
		JOINT spine01
		{
			OFFSET -0.000108 -0.000434 0.006186
			CHANNELS 3 Xrotation Yrotation Zrotation
			JOINT spine02
			{
				OFFSET 0.004075 -0.053178 0.066675
				CHANNELS 3 Xrotation Yrotation Zrotation
				JOINT spine03
				{
					OFFSET 0.000000 0.008649 0.117635
					CHANNELS 3 Xrotation Yrotation Zrotation
					JOINT clavicle_L
					{
						OFFSET 0.031960 -0.002455 0.159580
						CHANNELS 6 Xposition Yposition Zposition Xrotation Yrotation Zrotation
						JOINT upperarm_L
						{
							OFFSET 0.106613 -0.013377 -0.022582
							CHANNELS 6 Xposition Yposition Zposition Xrotation Yrotation Zrotation
							JOINT lowerarm_L
							{
								OFFSET 0.233664 0.021966 -0.134813
								CHANNELS 3 Xrotation Yrotation Zrotation
								JOINT hand_L
								{
									OFFSET 0.202817 -0.038212 -0.103702
									CHANNELS 3 Xrotation Yrotation Zrotation
									JOINT thumb01_L
									{
										OFFSET 0.008269 -0.017364 -0.009129
										CHANNELS 6 Xposition Yposition Zposition Xrotation Yrotation Zrotation
										JOINT thumb02_L
										{
											OFFSET 0.007103 -0.025549 -0.027526
											CHANNELS 3 Xrotation Yrotation Zrotation
											JOINT thumb03_L
											{
												OFFSET 0.011035 -0.026258 -0.014218
												CHANNELS 3 Xrotation Yrotation Zrotation
												End Site
												{
													OFFSET 0.008927 -0.014147 -0.017737
												}
											}
										}
									}
									JOINT index00_L
									{
										OFFSET 0.015790 -0.019369 -0.010869
										CHANNELS 6 Xposition Yposition Zposition Xrotation Yrotation Zrotation
										JOINT index01_L
										{
											OFFSET 0.047864 -0.007217 -0.023292
											CHANNELS 3 Xrotation Yrotation Zrotation
											JOINT index02_L
											{
												OFFSET 0.026189 -0.000355 -0.020650
												CHANNELS 3 Xrotation Yrotation Zrotation
												JOINT index03_L
												{
													OFFSET 0.017813 0.001193 -0.013583
													CHANNELS 3 Xrotation Yrotation Zrotation
													End Site
													{
														OFFSET 0.013377 0.001373 -0.016250
													}
												}
											}
										}
									}
									JOINT middle00_L
									{
										OFFSET 0.016276 -0.006169 -0.012863
										CHANNELS 6 Xposition Yposition Zposition Xrotation Yrotation Zrotation
										JOINT middle01_L
										{
											OFFSET 0.049067 -0.003947 -0.017410
											CHANNELS 3 Xrotation Yrotation Zrotation
											JOINT middle02_L
											{
												OFFSET 0.029087 0.000312 -0.026941
												CHANNELS 3 Xrotation Yrotation Zrotation
												JOINT middle03_L
												{
													OFFSET 0.019190 0.000267 -0.015543
													CHANNELS 3 Xrotation Yrotation Zrotation
													End Site
													{
														OFFSET 0.014683 0.000017 -0.017510
													}
												}
											}
										}
									}
									JOINT ring00_L
									{
										OFFSET 0.017106 0.003470 -0.011997
										CHANNELS 6 Xposition Yposition Zposition Xrotation Yrotation Zrotation
										JOINT ring01_L
										{
											OFFSET 0.044984 0.002116 -0.016733
											CHANNELS 3 Xrotation Yrotation Zrotation
											JOINT ring02_L
											{
												OFFSET 0.028856 0.000400 -0.026983
												CHANNELS 3 Xrotation Yrotation Zrotation
												JOINT ring03_L
												{
													OFFSET 0.017620 0.000363 -0.013833
													CHANNELS 3 Xrotation Yrotation Zrotation
													End Site
													{
														OFFSET 0.015507 -0.000807 -0.015547
													}
												}
											}
										}
									}
									JOINT pinky00_L
									{
										OFFSET 0.014366 0.020048 -0.015014
										CHANNELS 6 Xposition Yposition Zposition Xrotation Yrotation Zrotation
										JOINT pinky01_L
										{
											OFFSET 0.041296 0.001442 -0.016227
											CHANNELS 3 Xrotation Yrotation Zrotation
											JOINT pinky02_L
											{
												OFFSET 0.024951 -0.000301 -0.020450
												CHANNELS 3 Xrotation Yrotation Zrotation
												JOINT pinky03_L
												{
													OFFSET 0.013007 -0.001157 -0.010280
													CHANNELS 3 Xrotation Yrotation Zrotation
													End Site
													{
														OFFSET 0.009963 -0.001160 -0.011403
													}
												}
											}
										}
									}
								}
								JOINT lowerarm_twist_L
								{
									OFFSET 0.000000 -0.000000 0.000000
									CHANNELS 6 Xposition Yposition Zposition Xrotation Yrotation Zrotation
									End Site
									{
										OFFSET 0.113147 -0.023106 -0.058600
									}
								}
							}
							JOINT upperarm_twist_L
							{
								OFFSET 0.000000 0.000000 0.000000
								CHANNELS 6 Xposition Yposition Zposition Xrotation Yrotation Zrotation
								End Site
								{
									OFFSET 0.131225 0.003005 -0.082365
								}
							}
						}
					}
					JOINT clavicle_R
					{
						OFFSET -0.031960 -0.002455 0.159580
						CHANNELS 6 Xposition Yposition Zposition Xrotation Yrotation Zrotation
						JOINT upperarm_R
						{
							OFFSET -0.106613 -0.013377 -0.022582
							CHANNELS 6 Xposition Yposition Zposition Xrotation Yrotation Zrotation
							JOINT lowerarm_R
							{
								OFFSET -0.233664 0.021966 -0.134813
								CHANNELS 3 Xrotation Yrotation Zrotation
								JOINT hand_R
								{
									OFFSET -0.202817 -0.038212 -0.103702
									CHANNELS 3 Xrotation Yrotation Zrotation
									JOINT thumb01_R
									{
										OFFSET -0.008269 -0.017364 -0.009129
										CHANNELS 6 Xposition Yposition Zposition Xrotation Yrotation Zrotation
										JOINT thumb02_R
										{
											OFFSET -0.007103 -0.025549 -0.027526
											CHANNELS 3 Xrotation Yrotation Zrotation
											JOINT thumb03_R
											{
												OFFSET -0.011035 -0.026258 -0.014218
												CHANNELS 3 Xrotation Yrotation Zrotation
												End Site
												{
													OFFSET -0.008927 -0.014147 -0.017737
												}
											}
										}
									}
									JOINT index00_R
									{
										OFFSET -0.015790 -0.019369 -0.010869
										CHANNELS 6 Xposition Yposition Zposition Xrotation Yrotation Zrotation
										JOINT index01_R
										{
											OFFSET -0.047864 -0.007217 -0.023292
											CHANNELS 3 Xrotation Yrotation Zrotation
											JOINT index02_R
											{
												OFFSET -0.026189 -0.000355 -0.020650
												CHANNELS 3 Xrotation Yrotation Zrotation
												JOINT index03_R
												{
													OFFSET -0.017813 0.001193 -0.013583
													CHANNELS 3 Xrotation Yrotation Zrotation
													End Site
													{
														OFFSET -0.013377 0.001373 -0.016250
													}
												}
											}
										}
									}
									JOINT middle00_R
									{
										OFFSET -0.016276 -0.006169 -0.012863
										CHANNELS 6 Xposition Yposition Zposition Xrotation Yrotation Zrotation
										JOINT middle01_R
										{
											OFFSET -0.049067 -0.003947 -0.017410
											CHANNELS 3 Xrotation Yrotation Zrotation
											JOINT middle02_R
											{
												OFFSET -0.029087 0.000312 -0.026941
												CHANNELS 3 Xrotation Yrotation Zrotation
												JOINT middle03_R
												{
													OFFSET -0.019190 0.000267 -0.015543
													CHANNELS 3 Xrotation Yrotation Zrotation
													End Site
													{
														OFFSET -0.014683 0.000017 -0.017510
													}
												}
											}
										}
									}
									JOINT ring00_R
									{
										OFFSET -0.017106 0.003470 -0.011997
										CHANNELS 6 Xposition Yposition Zposition Xrotation Yrotation Zrotation
										JOINT ring01_R
										{
											OFFSET -0.044984 0.002116 -0.016733
											CHANNELS 3 Xrotation Yrotation Zrotation
											JOINT ring02_R
											{
												OFFSET -0.028856 0.000400 -0.026983
												CHANNELS 3 Xrotation Yrotation Zrotation
												JOINT ring03_R
												{
													OFFSET -0.017620 0.000363 -0.013833
													CHANNELS 3 Xrotation Yrotation Zrotation
													End Site
													{
														OFFSET -0.015507 -0.000807 -0.015547
													}
												}
											}
										}
									}
									JOINT pinky00_R
									{
										OFFSET -0.014366 0.020048 -0.015014
										CHANNELS 6 Xposition Yposition Zposition Xrotation Yrotation Zrotation
										JOINT pinky01_R
										{
											OFFSET -0.041296 0.001442 -0.016227
											CHANNELS 3 Xrotation Yrotation Zrotation
											JOINT pinky02_R
											{
												OFFSET -0.024951 -0.000301 -0.020450
												CHANNELS 3 Xrotation Yrotation Zrotation
												JOINT pinky03_R
												{
													OFFSET -0.013007 -0.001157 -0.010280
													CHANNELS 3 Xrotation Yrotation Zrotation
													End Site
													{
														OFFSET -0.009963 -0.001160 -0.011403
													}
												}
											}
										}
									}
								}
								JOINT lowerarm_twist_R
								{
									OFFSET 0.000000 0.000000 0.000000
									CHANNELS 6 Xposition Yposition Zposition Xrotation Yrotation Zrotation
									End Site
									{
										OFFSET -0.113147 -0.023106 -0.058600
									}
								}
							}
							JOINT upperarm_twist_R
							{
								OFFSET 0.000000 0.000000 0.000000
								CHANNELS 6 Xposition Yposition Zposition Xrotation Yrotation Zrotation
								End Site
								{
									OFFSET -0.131225 0.003005 -0.082365
								}
							}
						}
					}
					JOINT neck
					{
						OFFSET -0.000000 -0.002726 0.194733
						CHANNELS 6 Xposition Yposition Zposition Xrotation Yrotation Zrotation
						JOINT head
						{
							OFFSET 0.000000 -0.047407 0.104388
							CHANNELS 3 Xrotation Yrotation Zrotation
							End Site
							{
								OFFSET -0.000000 -0.000839 0.155358
							}
						}
					}
					JOINT breast_L
					{
						OFFSET 0.075423 -0.033073 0.045626
						CHANNELS 6 Xposition Yposition Zposition Xrotation Yrotation Zrotation
						End Site
						{
							OFFSET 0.027052 -0.131754 -0.030994
						}
					}
					JOINT breast_R
					{
						OFFSET -0.075423 -0.033073 0.045626
						CHANNELS 6 Xposition Yposition Zposition Xrotation Yrotation Zrotation
						End Site
						{
							OFFSET -0.027052 -0.131754 -0.030994
						}
					}
				}
			}
		}
	}
}
MOTION
Frames: 4
Frame Time: 0.041667
0.000000 0.000642 0.045086 0.000000 0.000000 0.000000 0.858602 -3.152466 1.386930 3.425561 -8.626295 -538.279395 -0.108457 -0.044120 -0.114619 -20.364568 -18.787436 0.002078 29.825889 -3.717845 -2.664376 -46.103862 11.102925 -22.598439 -0.009320 -0.126011 -0.069821 19.589003 -1.389236 3.472048 -0.000000 -0.000000 -0.000000 -0.000002 -0.000003 0.000000 0.000000 -0.000000 0.000000 0.000003 0.000003 -0.000001 0.116389 -0.044120 -0.114620 -22.110635 -7.023437 -0.765735 33.972473 4.189736 2.873639 -49.203105 13.853285 -0.102283 8.221648 1.834053 -7.799497 0.000000 -0.000000 -0.000000 -0.000001 -0.000001 0.000001 -0.000000 -0.000000 -0.000000 0.000004 -0.000001 0.000001 -10.353165 -4.396314 2.161157 12.144558 -4.133324 0.427808 -2.440661 -5.048233 -1.719786 0.031960 -0.002454 0.159581 0.000004 -0.000007 -0.000004 0.106614 -0.013377 -0.022582 27.654942 41.262068 -67.133779 -8.701711 -10.249505 -12.988200 22.288062 -12.980740 -17.166588 0.008269 -0.017364 -0.009129 0.000922 -0.000073 -0.000375 -0.000296 -0.000123 0.000233 -10.297437 -0.503286 16.890843 0.015791 -0.019370 -0.010870 -0.000005 -0.000017 0.000001 -0.000179 0.014389 -0.000341 -18.941535 -13.727601 -21.930382 -0.084815 -6.033715 -0.429603 0.016274 -0.006169 -0.012862 0.000003 0.000012 0.000001 -0.000649 0.015497 -0.000431 -0.000112 0.033335 0.000379 0.000280 0.071439 0.000419 0.017107 0.003471 -0.011996 -0.000007 -0.000012 -0.000001 -0.000004 0.017520 0.000234 -0.000667 0.031908 0.000153 0.000755 0.091896 -0.004033 0.014367 0.020048 -0.015014 -0.000001 0.000005 0.000001 0.000247 0.017952 -0.000005 0.001925 0.039130 -0.002047 0.005972 0.104251 -0.005367 0.000000 -0.000000 -0.000000 -0.000017 0.000677 0.000305 0.000000 -0.000000 0.000000 -0.000005 0.001355 -0.000066 -0.031960 -0.002455 0.159580 0.000001 0.000017 -0.000008 -0.106614 -0.013377 -0.022582 27.825625 -20.404353 59.723734 -28.360241 15.442773 41.514819 3.906402 7.032601 8.006468 -0.008269 -0.017364 -0.009130 0.001375 -0.000751 0.000196 -0.000073 -0.000407 0.000098 10.395310 -5.799670 -42.755581 -0.015791 -0.019369 -0.010870 -0.000007 0.000019 -0.000001 -0.000148 -0.013005 0.000297 6.758944 9.412396 -7.892251 -0.104081 6.073231 0.345166 -0.016275 -0.006169 -0.012862 -0.000002 0.000006 -0.000002 -0.000567 -0.013614 0.000380 -0.001182 -0.011797 0.000788 0.000547 -0.020176 -0.000671 -0.017107 0.003471 -0.011997 -0.000003 0.000002 -0.000000 -0.000719 -0.016773 0.000435 -0.000649 -0.015888 0.000172 -0.000130 -0.042075 0.002321 -0.014367 0.020048 -0.015014 0.000001 -0.000004 -0.000000 -0.000994 -0.017895 0.001033 0.000529 -0.022101 0.001600 0.000330 -0.056881 0.006363 -0.000001 -0.000000 -0.000000 -0.000001 -0.000002 0.000006 0.000001 -0.000000 0.000000 -0.000004 -0.000077 -0.000005 0.000000 -0.002726 0.194733 -39.530591 19.769067 -8.529061 -1.518893 -7.816672 1.152957 0.075423 -0.033073 0.045625 0.000420 0.000108 -0.000168 -0.075423 -0.033073 0.045627 0.000443 -0.000112 0.000182 
0.000000 0.000642 0.045086 0.000000 0.000000 0.000000 0.853596 -3.130830 1.396274 3.745074 -8.112626 -538.803298 -0.108457 -0.044120 -0.114619 -18.948756 -18.116220 -0.121039 30.744150 -3.745849 -2.735065 -45.361434 9.434708 -21.509763 -0.009320 -0.126011 -0.069821 27.792455 -1.678922 0.805837 -0.000000 0.000000 0.000000 -0.000000 -0.000003 0.000001 0.000000 -0.000001 0.000001 0.000001 0.000005 0.000000 0.116389 -0.044120 -0.114620 -20.432962 -6.662121 0.335761 34.367108 4.207510 2.900573 -48.850056 14.261356 -0.468453 8.019299 1.847593 -7.872129 0.000000 0.000000 -0.000000 0.000002 0.000000 0.000000 0.000000 -0.000000 -0.000001 0.000004 -0.000001 0.000000 -11.769930 -3.821618 2.823486 12.188748 -4.279794 1.028507 -1.757276 -5.601340 -1.337067 0.031960 -0.002455 0.159581 0.000005 -0.000010 -0.000003 0.106614 -0.013377 -0.022582 31.704095 39.630441 -70.589172 -8.084491 -9.893099 -12.047625 22.056730 -12.887091 -17.061358 0.008269 -0.017364 -0.009129 0.000925 -0.000073 -0.000375 -0.000306 -0.000120 0.000230 -9.519808 -2.045720 19.114204 0.015791 -0.019370 -0.010870 -0.000003 -0.000012 0.000000 -0.000179 0.014396 -0.000342 -17.577739 -15.690058 -20.161716 -0.084822 -6.033719 -0.429612 0.016274 -0.006169 -0.012862 0.000004 0.000014 -0.000000 -0.000645 0.015497 -0.000431 -0.000113 0.033336 0.000381 0.000279 0.071444 0.000420 0.017107 0.003471 -0.011996 -0.000006 -0.000014 -0.000001 -0.000005 0.017527 0.000235 -0.000666 0.031908 0.000152 0.000755 0.091889 -0.004035 0.014367 0.020048 -0.015014 -0.000001 -0.000002 0.000001 0.000247 0.017948 -0.000006 0.001923 0.039138 -0.002047 0.005973 0.104258 -0.005368 -0.000000 -0.000000 -0.000001 -0.000014 0.000670 0.000303 0.000000 0.000000 0.000000 -0.000007 0.001364 -0.000065 -0.031960 -0.002455 0.159580 -0.000000 0.000014 -0.000007 -0.106614 -0.013377 -0.022581 25.049345 -20.003507 57.512939 -37.696784 14.573629 54.748618 3.054000 6.833770 7.550357 -0.008269 -0.017364 -0.009129 0.001380 -0.000754 0.000190 -0.000074 -0.000407 0.000098 9.918533 -2.628222 -42.961029 -0.015791 -0.019370 -0.010870 0.000001 0.000019 -0.000004 -0.000143 -0.013007 0.000296 6.742426 12.716661 -7.133220 -0.104087 6.073231 0.345166 -0.016275 -0.006169 -0.012862 0.000005 0.000008 -0.000004 -0.000569 -0.013616 0.000379 -0.001182 -0.011800 0.000789 0.000537 -0.020178 -0.000669 -0.017107 0.003471 -0.011997 0.000004 0.000005 -0.000001 -0.000718 -0.016768 0.000437 -0.000646 -0.015889 0.000169 -0.000132 -0.042077 0.002319 -0.014367 0.020048 -0.015014 -0.000001 -0.000002 -0.000002 -0.000995 -0.017900 0.001033 0.000525 -0.022094 0.001594 0.000328 -0.056880 0.006359 -0.000001 -0.000000 -0.000000 0.000001 0.000003 0.000002 0.000001 0.000000 0.000001 -0.000002 -0.000071 -0.000000 0.000000 -0.002727 0.194733 -38.329563 20.606624 -9.302234 -1.036962 -6.482385 0.922745 0.075423 -0.033073 0.045626 0.000423 0.000106 -0.000168 -0.075423 -0.033073 0.045627 0.000445 -0.000113 0.000181 
0.000000 0.000642 0.045086 0.000000 0.000000 0.000000 0.848381 -3.111197 1.401650 4.394471 -6.597706 -539.837279 -0.108457 -0.044119 -0.114619 -17.011587 -16.559329 0.774220 31.649177 -3.778045 -2.803359 -44.904000 9.036567 -21.449564 -0.009320 -0.126012 -0.069821 31.194468 -1.910735 -0.284649 -0.000000 0.000000 -0.000000 0.000001 -0.000002 -0.000000 0.000000 -0.000000 0.000001 0.000003 0.000004 -0.000000 0.116389 -0.044120 -0.114620 -18.300544 -5.223977 2.085189 34.852707 4.229575 2.933577 -49.078888 14.205704 -0.414630 6.681536 1.943502 -8.351351 0.000000 -0.000000 -0.000000 -0.000000 -0.000001 0.000000 -0.000000 -0.000000 -0.000001 0.000003 -0.000001 -0.000000 -12.662656 0.453919 0.687027 12.374582 -2.964765 2.465875 -1.287821 -5.718483 2.255651 0.031960 -0.002455 0.159581 0.000004 -0.000009 -0.000002 0.106614 -0.013378 -0.022582 34.469291 33.970328 -70.650493 -7.980718 -9.831821 -11.888919 20.871351 -12.414286 -16.517344 0.008269 -0.017364 -0.009130 0.000923 -0.000073 -0.000379 -0.000300 -0.000121 0.000229 -8.769412 -3.333941 21.002082 0.015791 -0.019370 -0.010870 -0.000005 -0.000016 -0.000000 -0.000180 0.014394 -0.000342 -16.313934 -17.313319 -18.617082 -0.084827 -6.033709 -0.429622 0.016274 -0.006169 -0.012862 0.000004 0.000014 -0.000000 -0.000648 0.015501 -0.000432 -0.000115 0.033335 0.000381 0.000281 0.071446 0.000419 0.017107 0.003471 -0.011997 -0.000005 -0.000018 -0.000002 -0.000004 0.017525 0.000236 -0.000665 0.031914 0.000153 0.000757 0.091894 -0.004035 0.014367 0.020048 -0.015014 -0.000000 0.000003 -0.000000 0.000249 0.017955 -0.000005 0.001921 0.039137 -0.002046 0.005974 0.104258 -0.005368 -0.000000 -0.000000 -0.000001 -0.000019 0.000675 0.000309 0.000001 0.000000 0.000000 -0.000004 0.001364 -0.000067 -0.031960 -0.002455 0.159580 -0.000000 0.000013 -0.000007 -0.106614 -0.013377 -0.022581 18.214451 -24.244101 57.335217 -45.400742 12.179030 65.913737 4.942398 7.283680 8.557883 -0.008269 -0.017364 -0.009130 0.001368 -0.000752 0.000194 -0.000072 -0.000409 0.000095 8.224594 0.996295 -41.391397 -0.015791 -0.019369 -0.010870 -0.000007 0.000015 0.000001 -0.000143 -0.013007 0.000292 5.036514 16.395008 -4.516729 -0.104085 6.073234 0.345167 -0.016274 -0.006169 -0.012862 -0.000000 0.000004 -0.000004 -0.000562 -0.013611 0.000376 -0.001182 -0.011799 0.000787 0.000543 -0.020172 -0.000669 -0.017107 0.003471 -0.011996 -0.000008 0.000002 -0.000002 -0.000718 -0.016772 0.000434 -0.000650 -0.015888 0.000169 -0.000131 -0.042079 0.002316 -0.014367 0.020048 -0.015014 -0.000007 -0.000004 -0.000003 -0.000988 -0.017898 0.001026 0.000527 -0.022101 0.001600 0.000329 -0.056883 0.006358 -0.000001 -0.000000 -0.000000 0.000001 -0.000000 0.000005 0.000000 -0.000000 0.000001 -0.000003 -0.000074 0.000001 -0.000000 -0.002726 0.194733 -36.402145 17.783256 -11.898617 -0.995856 -5.179312 1.015242 0.075423 -0.033073 0.045626 0.000422 0.000107 -0.000170 -0.075423 -0.033073 0.045627 0.000443 -0.000112 0.000182 
0.000000 0.000642 0.045086 0.000000 0.000000 0.000000 0.842335 -3.089243 1.405913 4.162683 -7.896499 -540.292771 -0.108457 -0.044120 -0.114619 -15.774445 -17.775856 1.150857 31.386311 -3.767707 -2.781738 -45.653818 9.140058 -20.987020 -0.009320 -0.126011 -0.069821 32.671414 -2.031545 -0.753814 0.000000 -0.000000 -0.000000 0.000000 -0.000001 -0.000000 -0.000000 -0.000001 0.000001 0.000002 0.000004 -0.000001 0.116389 -0.044120 -0.114620 -17.982093 -6.657183 2.419804 36.238272 4.294157 3.026767 -49.376476 14.702611 -0.842145 9.546500 1.751854 -7.322779 0.000000 0.000000 -0.000000 0.000000 -0.000001 0.000000 -0.000000 -0.000000 -0.000000 0.000003 -0.000002 0.000001 -15.124192 -1.632951 -0.038803 12.196203 -3.264667 2.637782 -0.404310 -4.732021 2.268554 0.031960 -0.002455 0.159581 0.000003 -0.000010 -0.000002 0.106614 -0.013378 -0.022582 37.264167 32.915324 -72.041133 -7.349733 -9.450759 -10.921098 20.408424 -12.232910 -16.302765 0.008269 -0.017364 -0.009130 0.000927 -0.000072 -0.000378 -0.000302 -0.000121 0.000229 -8.064590 -3.957039 22.289416 0.015791 -0.019370 -0.010870 -0.000006 -0.000020 -0.000000 -0.000179 0.014391 -0.000342 -15.268789 -18.131179 -17.449482 -0.084832 -6.033704 -0.429634 0.016274 -0.006169 -0.012863 0.000002 0.000009 -0.000002 -0.000647 0.015497 -0.000431 -0.000112 0.033343 0.000382 0.000282 0.071440 0.000419 0.017107 0.003471 -0.011997 -0.000007 -0.000019 -0.000003 -0.000007 0.017527 0.000236 -0.000666 0.031914 0.000153 0.000756 0.091896 -0.004035 0.014367 0.020048 -0.015014 -0.000002 -0.000000 -0.000001 0.000249 0.017955 -0.000006 0.001923 0.039142 -0.002047 0.005975 0.104255 -0.005367 -0.000000 -0.000000 -0.000001 -0.000019 0.000678 0.000303 0.000001 0.000000 -0.000000 -0.000003 0.001357 -0.000062 -0.031960 -0.002455 0.159580 -0.000000 0.000012 -0.000007 -0.106613 -0.013377 -0.022581 8.772772 -24.094450 56.834697 -50.734816 9.474007 73.937645 5.390377 7.395444 8.795281 -0.008269 -0.017364 -0.009129 0.001375 -0.000752 0.000191 -0.000072 -0.000406 0.000096 6.872892 11.155972 -42.561255 -0.015791 -0.019370 -0.010869 -0.000001 0.000017 -0.000002 -0.000142 -0.013007 0.000292 5.203686 27.045152 -3.271975 -0.104086 6.073232 0.345166 -0.016274 -0.006169 -0.012862 0.000001 0.000003 -0.000002 -0.000563 -0.013606 0.000380 -0.001183 -0.011797 0.000792 0.000538 -0.020174 -0.000671 -0.017107 0.003471 -0.011996 0.000001 0.000000 -0.000001 -0.000718 -0.016767 0.000436 -0.000647 -0.015889 0.000169 -0.000133 -0.042077 0.002317 -0.014367 0.020048 -0.015014 0.000001 -0.000000 -0.000003 -0.000989 -0.017895 0.001037 0.000526 -0.022096 0.001598 0.000329 -0.056881 0.006364 -0.000000 -0.000000 0.000000 0.000003 -0.000005 0.000006 0.000001 0.000000 0.000001 -0.000002 -0.000074 0.000002 -0.000000 -0.002727 0.194733 -34.099016 16.639820 -11.406017 0.506954 -4.396227 0.776579 0.075423 -0.033073 0.045625 0.000421 0.000108 -0.000169 -0.075423 -0.033073 0.045626 0.000443 -0.000113 0.000182 
